#N canvas 420 121 1260 814 12;
#X msg 880 459 read data/perc.txt;
#X msg 301 251 read data/default.txt;
#X obj 523 86 comment 0 16 Menlo empty 0 255 255 255 0 0 0 0 1 0 cloud random list select;
#X msg 944 401 read data/unstable-metro.txt;
#X msg 187 455 read data/drone.txt;
#X msg 290 356 read data/emf_interference.txt;
#X msg 349 606 read data/complex_percussive_plain.txt;
#X msg 560 338 read data/complex_drone_plain.txt, f 34;
#X msg 530 254 read data/zadar_style_4triplets.txt;
#X msg 793 520 read data/vline_ultra_perc_3.txt;
#X msg 600 410 read data/vline_perc_1.txt;
#X msg 552 533 read data/vline_perc_2.txt;
#X msg 393 508 read data/buchla.txt;
#X msg 834 281 read data/sharpy.txt;
#X msg 792 625 read data/relaxed.txt;
#X msg 350 412 read data/random_delayed_perc.txt;
#X msg 597 477 read data/vactrol.txt;
#X msg 351 308 read data/polyrhythm.txt;
#X msg 302 218 1;
#X msg 351 286 2;
#X obj 438 87 random 18;
#X obj 438 149 select 1 2 3 4 5 6 7 8 9 10 11 12 13 14 15 16 17, f 55;
#X msg 290 323 3;
#X msg 350 383 4;
#X obj 438 180 bng 19 250 50 0 empty empty empty 0 -10 0 12 #fcfcfc #000000 #000000;
#X floatatom 438 115 5 0 0 0 - - - 16;
#X obj 460 180 bng 19 250 50 0 empty empty empty 0 -10 0 12 #fcfcfc #000000 #000000;
#X obj 482 180 bng 19 250 50 0 empty empty empty 0 -10 0 12 #fcfcfc #000000 #000000;
#X obj 505 180 bng 19 250 50 0 empty empty empty 0 -10 0 12 #fcfcfc #000000 #000000;
#X obj 527 180 bng 19 250 50 0 empty empty empty 0 -10 0 12 #fcfcfc #000000 #000000;
#X obj 550 180 bng 19 250 50 0 empty empty empty 0 -10 0 12 #fcfcfc #000000 #000000;
#X obj 572 180 bng 19 250 50 0 empty empty empty 0 -10 0 12 #fcfcfc #000000 #000000;
#X obj 595 180 bng 19 250 50 0 empty empty empty 0 -10 0 12 #fcfcfc #000000 #000000;
#X obj 617 180 bng 19 250 50 0 empty empty empty 0 -10 0 12 #fcfcfc #000000 #000000;
#X obj 640 180 bng 19 250 50 0 empty empty empty 0 -10 0 12 #fcfcfc #000000 #000000;
#X obj 662 180 bng 19 250 50 0 empty empty empty 0 -10 0 12 #fcfcfc #000000 #000000;
#X obj 685 180 bng 19 250 50 0 empty empty empty 0 -10 0 12 #fcfcfc #000000 #000000;
#X obj 707 180 bng 19 250 50 0 empty empty empty 0 -10 0 12 #fcfcfc #000000 #000000;
#X obj 730 180 bng 19 250 50 0 empty empty empty 0 -10 0 12 #fcfcfc #000000 #000000;
#X obj 752 180 bng 19 250 50 0 empty empty empty 0 -10 0 12 #fcfcfc #000000 #000000;
#X obj 775 180 bng 19 250 50 0 empty empty empty 0 -10 0 12 #fcfcfc #000000 #000000;
#X msg 187 426 5;
#X msg 530 222 7;
#X msg 560 304 8;
#X msg 600 380 9;
#X msg 597 449 10;
#X msg 834 252 11;
#X msg 944 371 12;
#X msg 850 433 13;
#X msg 392 482 14;
#X msg 553 508 15;
#X msg 792 487 16;
#X msg 792 597 18;
#X msg 349 576 17;
#X obj 797 180 bng 19 250 50 0 empty empty empty 0 -10 0 12 #fcfcfc #000000 #000000;
#X obj 438 54 inlet;
#X obj 281 280 outlet;
#X obj 351 335 outlet;
#X obj 288 382 outlet;
#X obj 350 443 outlet;
#X obj 188 490 outlet;
#X obj 349 632 outlet;
#X obj 395 545 outlet;
#X obj 552 555 outlet;
#X obj 599 508 outlet;
#X obj 789 667 outlet;
#X obj 811 560 outlet;
#X obj 889 498 outlet;
#X obj 869 314 outlet;
#X obj 541 371 outlet;
#X obj 528 284 outlet;
#X obj 943 433 outlet;
#X connect 0 0 67 0;
#X connect 1 0 56 0;
#X connect 3 0 71 0;
#X connect 4 0 60 0;
#X connect 5 0 58 0;
#X connect 6 0 61 0;
#X connect 7 0 69 0;
#X connect 8 0 70 0;
#X connect 9 0 66 0;
#X connect 11 0 63 0;
#X connect 12 0 62 0;
#X connect 13 0 68 0;
#X connect 14 0 65 0;
#X connect 15 0 59 0;
#X connect 16 0 64 0;
#X connect 17 0 57 0;
#X connect 18 0 1 0;
#X connect 19 0 17 0;
#X connect 20 0 25 0;
#X connect 21 0 24 0;
#X connect 21 1 26 0;
#X connect 21 2 27 0;
#X connect 21 3 28 0;
#X connect 21 4 29 0;
#X connect 21 5 30 0;
#X connect 21 6 31 0;
#X connect 21 7 32 0;
#X connect 21 8 33 0;
#X connect 21 9 34 0;
#X connect 21 10 35 0;
#X connect 21 11 36 0;
#X connect 21 12 37 0;
#X connect 21 13 38 0;
#X connect 21 14 39 0;
#X connect 21 15 40 0;
#X connect 21 16 54 0;
#X connect 22 0 5 0;
#X connect 23 0 15 0;
#X connect 24 0 18 0;
#X connect 25 0 21 0;
#X connect 26 0 19 0;
#X connect 27 0 22 0;
#X connect 28 0 23 0;
#X connect 29 0 41 0;
#X connect 30 0 42 0;
#X connect 31 0 43 0;
#X connect 32 0 44 0;
#X connect 33 0 45 0;
#X connect 34 0 46 0;
#X connect 35 0 47 0;
#X connect 36 0 48 0;
#X connect 37 0 49 0;
#X connect 38 0 50 0;
#X connect 39 0 51 0;
#X connect 40 0 53 0;
#X connect 41 0 4 0;
#X connect 42 0 8 0;
#X connect 43 0 7 0;
#X connect 44 0 10 0;
#X connect 45 0 16 0;
#X connect 46 0 13 0;
#X connect 47 0 3 0;
#X connect 48 0 0 0;
#X connect 49 0 12 0;
#X connect 50 0 11 0;
#X connect 51 0 9 0;
#X connect 52 0 14 0;
#X connect 53 0 6 0;
#X connect 54 0 52 0;
#X connect 55 0 20 0;
