#N canvas 436 214 1120 619 10;
#X text 20 18 vline~ (0..1) → freq: freq = fmin + env * (fmax - fmin);
#X floatatom 552 217 6 0 0 0 fmin - - 0;
#X floatatom 632 217 6 0 0 0 fmax - - 0;
#X obj 552 247 t b f;
#X obj 632 247 t b f;
#X obj 568 484 - 0;
#X text 159 172 (fmax - fmin);
#X obj 60 200 vline~;
#X text 60 151 FREQ env (demo);
#X obj 60 320 *~ 0;
#X obj 60 350 +~ 0;
#X obj 60 380 osc~;
#X obj 287 192 vline~;
#X text 287 143 AMP env (demo);
#X obj 60 410 *~;
#X obj 60 440 dac~;
#X obj 20 60 tgl 18 0 empty empty DSP 0 -6 0 10 #fcc4c4 #000000 #000000 0 1;
#X obj 20 85 sel 1 0;
#X msg 20 110 \; pd dsp 1;
#X msg 90 110 \; pd dsp 0;
#X text 682 217 Set fmin/fmax. Send your terne to the left vline~;
#X text 713 76 The right vline~ is just the amp envelope;
#X obj 298 84 bng 16 250 50 0 empty empty empty 0 -8 0 10 #fcfcfc #000000 #000000;
#X msg 699 553 1 0 0 0.54 1136.82 0 0 44.64 1136.82 0 240.15 1181.45;
#X obj 553 159 loadbang;
#X obj 633 161 loadbang;
#X msg 60 170 1 15 0 \, 0 700 5;
#X msg 287 162 1 2 0 \, 0 1800 2;
#X msg 553 180 0;
#X msg 633 182 2000;
#X connect 1 0 3 0;
#X connect 2 0 4 0;
#X connect 3 0 5 0;
#X connect 3 1 5 1;
#X connect 4 0 5 0;
#X connect 4 1 5 0;
#X connect 5 0 9 1;
#X connect 5 0 10 1;
#X connect 7 0 9 0;
#X connect 9 0 10 0;
#X connect 10 0 11 0;
#X connect 11 0 14 0;
#X connect 12 0 14 1;
#X connect 14 0 15 0;
#X connect 14 0 15 1;
#X connect 16 0 17 0;
#X connect 17 0 18 0;
#X connect 17 1 19 0;
#X connect 22 0 26 0;
#X connect 22 0 27 0;
#X connect 24 0 28 0;
#X connect 25 0 29 0;
#X connect 26 0 7 0;
#X connect 27 0 12 0;
#X connect 28 0 1 0;
#X connect 29 0 2 0;
