#N canvas 591 175 1003 772 8;
#X obj 59 95 openpanel;
#X obj 59 47 bng 40 250 50 0 empty empty CHOOSE\ FILE 0 -10 0 12 #ffffff #000000 #000000;
#X text 48 28 2;
#X obj 95 117 t s s;
#X obj 117 165 s display_path;
#X obj 93 218 soundfiler;
#X obj 118 305 loadbang;
#X obj 118 325 del 1;
#X msg 118 348 set;
#X obj 118 371 s clear_display_msg;
#X obj 316 309 r display_path;
#X msg 316 329 read -resize /Users/emiliano/Documents/SOX/nord-dums/TOM/TTY.wav samplebufL samplebufR, f 23;
#X obj 316 391 r clear_display_msg;
#X obj 118 395 del 2;
#X msg 118 420 \; samplebufL const 0 \; samplebufR const 0 \; samplebufL resize 1 \; samplebufR resize 1;
#X obj 439 124 array define samplebufL;
#X obj 439 142 array define samplebufR;
#X msg 95 190 read -resize \$1 samplebufL samplebufR;
#X msg 117 145 set read -resize \$1 samplebufL samplebufR;
#X connect 0 0 17 0;
#X connect 0 0 3 0;
#X connect 1 0 0 0;
#X connect 3 0 17 0;
#X connect 3 1 18 0;
#X connect 6 0 7 0;
#X connect 6 0 13 0;
#X connect 7 0 8 0;
#X connect 8 0 9 0;
#X connect 10 0 11 0;
#X connect 12 0 11 0;
#X connect 13 0 14 0;
#X connect 17 0 5 0;
#X connect 18 0 4 0;
