#N canvas 371 146 766 766 10;
#X msg 210 272 read data/perc.txt;
#X msg 72 272 read data/default.txt;
#X msg 330 272 read data/unstable-metro.txt;
#X msg 71 292 read data/drone.txt;
#X msg 199 292 read data/emf_interference.txt;
#X msg 70 311 read data/complex_percussive_plain.txt;
#X msg 391 291 read data/complex_drone_plain.txt, f 34;
#X msg 309 311 read data/zadar_style_4triplets.txt;
#X msg 70 329 read data/vline_ultra_perc_3.txt;
#X msg 274 329 read data/vline_perc_1.txt;
#X msg 70 348 read data/vline_perc_2.txt;
#X msg 239 348 read data/buchla.txt;
#X msg 372 348 read data/sharpy.txt;
#X msg 444 329 read data/relaxed.txt;
#X msg 276 253 read data/random_delayed_perc.txt;
#X msg 503 348 read data/vactrol.txt;
#X msg 284 234 read data/polyrhythm.txt;
#X obj 73 249 cnv 19 200 20 empty empty DYNATEXT-CLOUD-PRESET 6 11 0 15 #000000 #ffffff 0;
#X obj 77 56 random 18;
#X floatatom 77 84 5 0 0 0 - - - 16;
#X obj 77 33 inlet;
#X text 465 94 Random Global Terna Sequencer;
#X obj 77 163 bang;
#X obj 108 163 bang;
#X obj 140 163 bang;
#X obj 172 163 bang;
#X obj 204 163 bang;
#X obj 236 163 bang;
#X obj 268 163 bang;
#X obj 299 163 bang;
#X obj 331 163 bang;
#X obj 363 163 bang;
#X obj 395 163 bang;
#X obj 427 163 bang;
#X obj 459 163 bang;
#X obj 490 163 bang;
#X obj 522 163 bang;
#X obj 554 163 bang;
#X obj 586 163 bang;
#X obj 618 163 bang;
#X obj 295 375 outlet;
#X obj 295 395 outlet;
#X obj 295 413 outlet;
#X obj 295 433 outlet;
#X obj 296 452 outlet;
#X obj 296 472 outlet;
#X obj 296 490 outlet;
#X obj 296 510 outlet;
#X obj 296 530 outlet;
#X obj 296 550 outlet;
#X obj 296 568 outlet;
#X obj 296 588 outlet;
#X obj 297 607 outlet;
#X obj 297 627 outlet;
#X obj 297 645 outlet;
#X obj 297 665 outlet;
#X obj 77 118 select 1 2 3 4 5 6 7 8 9 10 11 12 13 14 15 16 17 18, f 96;
#X obj 651 163 bng 16 250 50 0 empty empty empty 0 -8 0 10 #fcfcfc #000000 #000000;
#X msg 77 196 0;
#X msg 108 196 1;
#X msg 140 196 2;
#X msg 172 196 3;
#X msg 204 196 4;
#X msg 236 196 5;
#X msg 268 196 6;
#X msg 299 196 7;
#X msg 331 196 8;
#X msg 395 196 10;
#X msg 427 196 11;
#X msg 459 196 12;
#X msg 490 196 13;
#X msg 522 196 14;
#X msg 554 196 15;
#X msg 586 196 16;
#X msg 618 196 17;
#X text 94 147 0;
#X msg 363 196 9;
#X text 125 147 1;
#X text 156 147 2;
#X text 188 147 3;
#X text 222 147 4;
#X text 254 147 5;
#X text 285 147 6;
#X text 316 147 7;
#X text 346 147 8;
#X text 378 147 9;
#X text 409 147 10;
#X text 441 147 11;
#X text 471 147 12;
#X text 502 147 13;
#X text 533 147 14;
#X text 565 147 15;
#X text 597 148 16;
#X text 629 148 17;
#X connect 0 0 43 0;
#X connect 1 0 42 0;
#X connect 2 0 44 0;
#X connect 3 0 45 0;
#X connect 4 0 46 0;
#X connect 5 0 48 0;
#X connect 6 0 47 0;
#X connect 7 0 49 0;
#X connect 8 0 50 0;
#X connect 9 0 51 0;
#X connect 10 0 53 0;
#X connect 11 0 54 0;
#X connect 12 0 54 0;
#X connect 13 0 52 0;
#X connect 14 0 41 0;
#X connect 15 0 55 0;
#X connect 16 0 40 0;
#X connect 18 0 19 0;
#X connect 19 0 56 0;
#X connect 20 0 18 0;
#X connect 22 0 58 0;
#X connect 23 0 59 0;
#X connect 24 0 60 0;
#X connect 25 0 61 0;
#X connect 26 0 62 0;
#X connect 27 0 63 0;
#X connect 28 0 64 0;
#X connect 29 0 65 0;
#X connect 30 0 66 0;
#X connect 31 0 76 0;
#X connect 32 0 67 0;
#X connect 33 0 68 0;
#X connect 34 0 69 0;
#X connect 35 0 70 0;
#X connect 36 0 71 0;
#X connect 37 0 72 0;
#X connect 38 0 73 0;
#X connect 39 0 74 0;
#X connect 56 0 22 0;
#X connect 56 1 23 0;
#X connect 56 2 24 0;
#X connect 56 3 25 0;
#X connect 56 4 26 0;
#X connect 56 5 27 0;
#X connect 56 6 28 0;
#X connect 56 7 29 0;
#X connect 56 8 30 0;
#X connect 56 9 31 0;
#X connect 56 10 32 0;
#X connect 56 11 33 0;
#X connect 56 12 34 0;
#X connect 56 13 35 0;
#X connect 56 14 36 0;
#X connect 56 15 37 0;
#X connect 56 16 38 0;
#X connect 56 17 39 0;
#X connect 56 18 57 0;
#X connect 58 0 16 0;
#X connect 59 0 14 0;
#X connect 60 0 1 0;
#X connect 61 0 0 0;
#X connect 62 0 2 0;
#X connect 63 0 3 0;
#X connect 64 0 4 0;
#X connect 65 0 6 0;
#X connect 66 0 5 0;
#X connect 67 0 8 0;
#X connect 68 0 9 0;
#X connect 69 0 13 0;
#X connect 70 0 10 0;
#X connect 71 0 11 0;
#X connect 72 0 12 0;
#X connect 73 0 15 0;
#X connect 76 0 7 0;
