#N canvas 908 361 532 469 12;
#X obj 96 330 text define -k lista-sample;
#A set 0 e 1 a 2 i 3 x 4 o 5 u 6 n;
#X msg 177 265 click;
#X msg 225 265 close;
#X msg 125 264 clear;
#X obj 96 182 list prepend read;
#X obj 96 206 list trim;
#X obj 96 147 openpanel;
#X obj 96 100 bng 30 250 50 0 empty empty BROWSE\ txt\ file 0 -10 0 12 #fcfcfc #000000 #000000;
#X text 131 115 prima carica un file di testo;
#X text 277 264 poi apri il contenuto con click;
#X connect 1 0 0 0;
#X connect 2 0 0 0;
#X connect 3 0 0 0;
#X connect 4 0 5 0;
#X connect 5 0 0 0;
#X connect 6 0 4 0;
#X connect 7 0 6 0;
