#N canvas 827 239 734 565 12;
#X msg 233 532 click;
#X msg 283 532 close;
#X msg 182 532 clear;
#X obj 70 413 list prepend read;
#X obj 70 437 list trim;
#X obj 70 378 openpanel;
#X obj 70 309 bng 30 250 50 0 empty empty LOAD\ NETSOUND\ DB 0 -10 0 12 #fcfcfc #000000 #000000;
#X obj 70 566 symbol;
#X msg 70 608 set read \$1;
#X listbox 70 634 74 0 0 0 - - - 8;
#X obj 163 608 r \$0-path;
#X obj 199 262 cnv 6 84 16 empty empty TXT-NETSOUND 3 8 0 10 #fcc4c4 #000000 0;
#X text 60 260 loaded netsound db;
#X obj 171 339 t b b;
#N canvas 0 0 450 250 (subpatch) 0;
#X array samplebufL 24462 float 2;
#X coords 0 1 24462 -1 200 140 1;
#X restore 72 37 graph;
#N canvas 0 0 450 250 (subpatch) 0;
#X array samplebufR 24462 float 2;
#X coords 0 1 24462 -1 200 140 1;
#X restore 278 39 graph;
#X obj 209 405 list;
#X obj 209 444 t b;
#X obj 210 482 s \$0-format;
#X listbox 493 243 2 0 0 0 - - - 36;
#X listbox 513 466 54 0 0 0 - - \$0-strike 16;
#X obj 159 569 text define -k lista-netsound;
#A set https://cdn.freesound.org/previews/152/152652_2764107-hq.mp3 \; https://cdn.freesound.org/previews/683/683770_8859502-hq.mp3 \; https://cdn.freesound.org/previews/431/431873_8454413-hq.mp3 \; https://cdn.freesound.org/previews/335/335688_33044-hq.mp3 \; https://cdn.freesound.org/previews/74/74368_209414-hq.mp3 \; https://cdn.freesound.org/previews/353/353201_3356610-hq.mp3 \; https://cdn.freesound.org/previews/535/535607_9015615-hq.mp3 \; https://cdn.freesound.org/previews/192/192512_2511427-hq.mp3 \;;
#X obj 483 437 text get lista-netsound;
#X msg 485 573 download https://cdn.freesound.org/previews/192/192512_2511427-hq.mp3, f 82;
#X obj 482 500 pack s, f 8;
#X msg 482 529 set download \$1, f 17;
#X obj 485 631 else/sfload samplebufL;
#X obj 642 630 else/sfload samplebufR;
#X obj 446 243 bng 41 250 50 0 empty empty empty 17 7 0 10 #e4e4e4 #4d4d4d #373737;
#X msg 529 197 1;
#X msg 558 197 2;
#X msg 589 197 3;
#X msg 619 197 4;
#X msg 650 197 5;
#X msg 679 197 6;
#X msg 710 197 7;
#X msg 740 197 8;
#X connect 0 0 21 0;
#X connect 1 0 21 0;
#X connect 2 0 21 0;
#X connect 3 0 4 0;
#X connect 4 0 21 0;
#X connect 5 0 3 0;
#X connect 5 0 7 0;
#X connect 6 0 13 0;
#X connect 7 0 8 0;
#X connect 8 0 9 0;
#X connect 10 0 9 0;
#X connect 13 0 5 0;
#X connect 16 0 17 0;
#X connect 17 0 18 0;
#X connect 19 0 22 0;
#X connect 22 0 24 0;
#X connect 22 0 20 0;
#X connect 23 0 26 0;
#X connect 23 0 27 0;
#X connect 24 0 25 0;
#X connect 25 0 23 0;
#X connect 28 0 23 0;
#X connect 29 0 19 0;
#X connect 29 0 28 0;
#X connect 30 0 19 0;
#X connect 30 0 28 0;
#X connect 31 0 19 0;
#X connect 31 0 28 0;
#X connect 32 0 19 0;
#X connect 32 0 28 0;
#X connect 33 0 19 0;
#X connect 33 0 28 0;
#X connect 34 0 19 0;
#X connect 34 0 28 0;
#X connect 35 0 19 0;
#X connect 35 0 28 0;
#X connect 36 0 19 0;
#X connect 36 0 28 0;
