#N canvas 194 235 842 601 10;
#X obj 348 253 cnv 6 92 16 empty empty LOW-END-GEN 10 8 0 10 #000000 #ffffff 0;
#N canvas 826 128 832 323 low-end-gen____ 0;
#X obj 73 266 s \$0-preset;
#X obj 148 266 s \$0-path;
#X obj 99 233 list;
#X obj 283 97 s \$0-drone;
#X msg 283 69 2;
#X obj 38 21 inlet;
#X msg 403 69 48;
#X obj 403 97 s \$0-stretch;
#X text 81 19 INVIA IN ORDINE;
#X text 102 180 1) LOAD TEXT FILE;
#X obj 531 91 s \$0-act;
#X obj 38 53 t b b b b;
#X msg 531 69 1 1 1 1;
#X obj 380 198 s \$0-sample;
#X msg 380 236 \; samplebufL normalize 0.9 \; samplebufR normalize 0.9;
#X obj 464 212 array.copy;
#X msg 464 188 copy samplebufL samplebufR;
#X obj 193 15 cnv 10 200 30 empty empty LOW-END-GENERATOR 6 15 0 15 #000000 #ffffff 0;
#X msg 380 143 read -resize read -resize /Users/emiliano/Documents/SOX/nord-dums/SFX/BUGGY.wav samplebufL samplebufR, f 70;
#X msg 73 199 read data/vline_perc_1.txt;
#X connect 2 0 1 0;
#X connect 4 0 3 0;
#X connect 5 0 11 0;
#X connect 6 0 7 0;
#X connect 11 0 12 0;
#X connect 11 1 4 0;
#X connect 11 1 16 0;
#X connect 11 2 19 0;
#X connect 11 2 14 0;
#X connect 11 3 6 0;
#X connect 11 3 18 0;
#X connect 12 0 10 0;
#X connect 16 0 15 0;
#X connect 18 0 13 0;
#X connect 19 0 0 0;
#X connect 19 0 2 0;
#X restore 329 273 pd low-end-gen____;
#X obj 329 253 bng 16 250 50 0 empty empty empty 0 -8 0 10 #fcfcfc #000000 #000000;
#X connect 2 0 1 0;
