#N canvas 827 239 734 565 12;
#X obj 96 183 osc~ 220;
#X obj 167 183 osc~ 220;
#X obj 165 375 *~;
#X obj 228 375 *~;
#X obj 173 416 dac~;
#X obj 265 226 list, f 8;
#X obj 338 225 list split 3, f 8;
#X obj 305 258 t b l;
#X obj 305 312 vline~;
#X msg 255 109 1 50 0 0.2 200 50 0.8 100 250 0 20 350 1 10 370 0 50 380 1 10 430 0 50 440 1 10 490 0 50 500;
#X connect 0 0 2 0;
#X connect 1 0 3 0;
#X connect 2 0 4 0;
#X connect 3 0 4 1;
#X connect 5 0 6 0;
#X connect 6 0 7 0;
#X connect 6 1 5 1;
#X connect 7 0 5 0;
#X connect 7 1 8 0;
#X connect 8 0 3 1;
#X connect 8 0 2 1;
#X connect 9 0 6 0;
