#N canvas 733 172 450 300 (subpatch) 1;
#X obj 848 408 snake~ out;
#X obj 934 623 *~;
#X obj 979 623 *~;
#X obj 805 670 s~ \$0-ascp;
#X obj 892 670 s~ \$0-chl;
#X obj 974 670 s~ \$0-chr;
#X obj 924 531 cyclone/gate~ 2 1, f 21;
#X obj 1090 531 cyclone/gate~ 2 1, f 21;
#X obj 1260 531 cyclone/gate~ 2 1, f 21;
#X obj 1431 531 cyclone/gate~ 2 1, f 21;
#N canvas 1210 259 325 598 nkl 0;
#X obj 118 81 lop~;
#X obj 118 37 inlet~;
#X obj 103 487 outlet~;
#X text 77 38 AUDIO;
#X obj 118 178 *~ 0.98;
#X obj 30 350 noise~;
#X obj 103 434 +~;
#X text 186 83 FILTER SLIDER, f 14;
#X obj 118 272 tanh~;
#X obj 118 297 clip~ -0.3 0.3 \;;
#X obj 118 318 *~ 20;
#X obj 118 341 clip~ -0.1 0.1;
#X obj 118 364 *~ 10;
#X obj 118 388 clip~ -0.05 0.05;
#X obj 118 412 *~ 0.5;
#X obj 172 63 hsl 70 12 100 5000 0 0 empty empty empty -2 -10 0 12 -228856 -1 -1 0 1;
#X obj 169 8 loadbang;
#X msg 169 36 2495;
#X obj 118 108 allpass~ 6 0.72;
#X obj 118 132 allpass~ 12 0.59;
#X obj 118 155 allpass~ 18 0.67;
#X obj 118 205 hip~ 2100;
#X obj 118 233 *~ 2.8;
#X obj 30 377 *~ 0.0011;
#X text 119 508 NUKE;
#X obj 103 457 hip~ 10;
#X obj 212 36 r \$0-vcfl;
#X connect 0 0 18 0;
#X connect 1 0 0 0;
#X connect 4 0 21 0;
#X connect 5 0 23 0;
#X connect 6 0 25 0;
#X connect 8 0 9 0;
#X connect 9 0 10 0;
#X connect 10 0 12 0;
#X connect 12 0 13 0;
#X connect 13 0 14 0;
#X connect 14 0 6 1;
#X connect 15 0 0 1;
#X connect 15 0 21 1;
#X connect 16 0 17 0;
#X connect 17 0 15 0;
#X connect 18 0 19 0;
#X connect 19 0 20 0;
#X connect 20 0 4 0;
#X connect 21 0 22 0;
#X connect 22 0 8 0;
#X connect 23 0 6 0;
#X connect 25 0 2 0;
#X connect 26 0 15 0;
#X restore 781 471 pd nkl;
#N canvas 618 102 299 590 nkr 0;
#X obj 103 81 lop~;
#X obj 103 45 inlet~;
#X text 62 46 AUDIO;
#X obj 103 108 allpass~ 5 0.7;
#X obj 103 132 allpass~ 11 0.6;
#X obj 103 155 allpass~ 19 0.65;
#X obj 103 178 *~ 0.98;
#X obj 103 219 hip~ 2000;
#X obj 15 356 noise~;
#X obj 88 446 +~;
#X obj 15 383 *~ 0.001;
#X text 164 84 FILTER SLIDER;
#X obj 103 247 *~ 3;
#X obj 103 278 tanh~;
#X obj 103 303 clip~ -0.3 0.3 \;;
#X obj 103 324 *~ 20;
#X obj 103 347 clip~ -0.1 0.1;
#X obj 103 370 *~ 10;
#X obj 103 394 clip~ -0.05 0.05;
#X obj 103 418 *~ 0.5;
#X obj 157 69 hsl 70 12 100 5000 0 0 empty empty empty -2 -10 0 12 -228856 -1 -1 0 1;
#X obj 154 17 loadbang;
#X msg 154 45 2495;
#X obj 88 510 outlet~;
#X text 104 531 NUKE;
#X obj 88 475 hip~ 10;
#X obj 193 45 r \$0-vcfl;
#X connect 0 0 3 0;
#X connect 1 0 0 0;
#X connect 3 0 4 0;
#X connect 4 0 5 0;
#X connect 5 0 6 0;
#X connect 6 0 7 0;
#X connect 7 0 12 0;
#X connect 8 0 10 0;
#X connect 9 0 23 0;
#X connect 9 0 25 0;
#X connect 10 0 9 0;
#X connect 12 0 13 0;
#X connect 13 0 14 0;
#X connect 14 0 15 0;
#X connect 15 0 17 0;
#X connect 17 0 18 0;
#X connect 18 0 19 0;
#X connect 19 0 9 1;
#X connect 20 0 0 1;
#X connect 20 0 7 1;
#X connect 21 0 22 0;
#X connect 22 0 20 0;
#X connect 26 0 20 0;
#X restore 890 471 pd nkr;
#X obj 1277 219 inlet~;
#X obj 1295 219 inlet~;
#X obj 1313 219 inlet~;
#X obj 1332 219 inlet~;
#X obj 815 576 inlet~ l;
#X obj 875 576 inlet~ r;
#X obj 1634 373 noise~;
#X obj 1523 169 vradio 15 1 0 2 empty empty empty 0 -8 0 10 -1 -262144 -1 0;
#X obj 1541 169 vradio 15 1 0 2 empty empty empty 0 -8 0 10 -1 -262144 -1 0;
#X obj 1559 169 vradio 15 1 0 2 empty empty empty 0 -8 0 10 -1 -262144 -1 0;
#X obj 1578 169 vradio 15 1 0 2 empty empty empty 0 -8 0 10 -1 -262144 -1 0;
#X connect 0 0 10 0;
#X connect 0 0 6 1;
#X connect 0 1 11 0;
#X connect 0 1 7 1;
#X connect 1 0 3 0;
#X connect 1 0 4 0;
#X connect 2 0 3 0;
#X connect 2 0 5 0;
#X connect 6 0 1 0;
#X connect 6 1 1 0;
#X connect 7 0 2 0;
#X connect 7 1 2 0;
#X connect 8 0 1 0;
#X connect 8 1 1 0;
#X connect 9 0 2 0;
#X connect 9 1 2 1;
#X connect 10 0 8 1;
#X connect 11 0 9 1;
#X connect 12 0 6 0;
#X connect 13 0 7 0;
#X connect 14 0 8 0;
#X connect 15 0 9 0;
#X connect 16 0 4 0;
#X connect 17 0 5 0;
#X connect 18 0 9 1;
#X connect 19 0 6 0;
#X connect 20 0 7 0;
#X connect 21 0 8 0;
#X connect 22 0 9 0;
